<svg xmlns="http://www.w3.org/2000/svg" width="406.76" height="59.997" viewBox="0 0 400 59">
  <defs>
    <style>
      .cls-1 {
        fill: #f1f1f1;
        fill-rule: evenodd;
      }
    </style>
  </defs>
  <path id="REMIND_ME_WHEN" data-name="REMIND ME WHEN" class="cls-1" d="M7.5,45.049V31l6.5,0.25,7,13.8h4.95L18.1,30.9v-0.15a9.212,9.212,0,0,0,5.5-3.4,11.3,11.3,0,0,0,1.9-6.9,12.775,12.775,0,0,0-1.35-6.325A7.791,7.791,0,0,0,20.3,10.7a15.172,15.172,0,0,0-5.9-1.05q-1.451,0-3.125.075T8,9.9q-1.6.1-2.85,0.2t-1.8.2L3.5,28.6,3.25,45.049H7.5ZM11.175,27.6q-1.976-.15-3.725-0.35L7.55,13.4q1.15-.15,3.275-0.35t4.175-.2a15.836,15.836,0,0,1,2.425.175,4.522,4.522,0,0,1,1.675.525,3.544,3.544,0,0,1,1.425,2.125A16.235,16.235,0,0,1,21.05,20.4q0,3.8-1.225,5.575T14.9,27.749Q13.149,27.749,11.175,27.6ZM52.05,45.049v-3.7l-14.75.1,1.95,1.9L38.9,27.7l-1.85,1.45h13.8V25.6H37.05l1.85,1.25,0.35-14.9-1.95,1.9L52.05,14V10.3H35v34.75H52.05Zm12.6,0,0.4-30.55H65.4l7.8,22.4h5.15L86.2,14.5h0.35l0.4,30.55h4.2l-1.2-34.75h-6.1l-7.9,22.65H75.6L67.749,10.3h-6.1l-1.2,34.75h4.2Zm41,0-0.2-19.4,0.2-15.35H101.4l0.15,18.85L101.4,45.1Zm14.7,0-0.65-29.7h0.15L134,45.049h5.65V10.3h-4.2L136.1,40h-0.15L121.8,10.3h-5.65v34.75h4.2ZM166.6,44a11.691,11.691,0,0,0,4.575-5.8,29.29,29.29,0,0,0,1.675-10.95,43.065,43.065,0,0,0-.5-6.675,18.173,18.173,0,0,0-1.8-5.65,9.656,9.656,0,0,0-3.725-3.9A12.278,12.278,0,0,0,160.549,9.6q-1.35,0-3.075.1t-3.325.225q-1.6.125-2.7,0.225t-1.3.1V45.1q0.45,0.049,1.65.15l2.725,0.225q1.524,0.124,3,.2T160,45.749A12.527,12.527,0,0,0,166.6,44Zm-10.3-2.125q-1.4-.225-2.85-0.425l0.9,2.05V11.7l-0.75,2q1.35-.1,3.2-0.275t3.85-.175a14.351,14.351,0,0,1,3.275.275,3.763,3.763,0,0,1,1.575.725q1.4,1.2,2.025,4.65a45.387,45.387,0,0,1,.625,8,53.73,53.73,0,0,1-.4,7.3,18.588,18.588,0,0,1-1.025,4.3,6.9,6.9,0,0,1-1.325,2.2,4.474,4.474,0,0,1-1.95,1.025,15.627,15.627,0,0,1-4,.375A19.949,19.949,0,0,1,156.3,41.874ZM200,45.049l-0.25-26.35h0.3l5.4,19h8.15l5.4-19h0.3l-0.25,26.35h7.8l-1.3-35.15h-9.9l-6,20.05h-0.3L203.5,9.9h-10.05l-1.25,35.15H200Zm55.849,0v-6.7l-16.75.15,3.6,3.45L242.247,27l-3.4,3.5H254.6v-6.55h-15.75l3.4,3.5,0.45-14.5-3.6,3.45,16.75,0.2V9.9h-21.1v35.15h21.1Zm28,0,5.6-22.9h0.3l5.55,22.9h6.1l6.25-34.75h-4.3l-4.85,31.05h-0.35l-5.55-22.9h-6l-5.55,22.9H280.7l-4.85-31.05h-4.3l6.3,34.75h6Zm33.9,0L317.6,27.8l-1.9,1.4h18.4l-1.9-1.4-0.1,17.25h4.2V10.3h-4.2l0.1,16.6,1.9-1.4H315.7l1.9,1.4,0.15-16.6h-4.2v34.75h4.2Zm46.1,0v-3.7l-14.75.1,1.95,1.9L350.7,27.7l-1.85,1.45h13.8V25.6h-13.8l1.85,1.25,0.35-14.9-1.95,1.9L363.845,14V10.3H346.8v34.75h17.05Zm12.85,0-0.65-29.7h0.15l14.15,29.7H396V10.3h-4.2l0.65,29.7H392.3l-14.15-29.7H372.5v34.75h4.2Z"/>
</svg>
